<?xml version="1.0" encoding="UTF-8" standalone="no"?>
<svg
   width="1280mm"
   height="1583.9437mm"
   viewBox="0 0 1280 1583.9437"
   version="1.1"
   id="svg18158"
   xmlns="http://www.w3.org/2000/svg"
   xmlns:svg="http://www.w3.org/2000/svg"
   xmlns:lc="https://librecad.org">
  <defs
     id="defs18158" />
  <g
     lc:layername="A-Joinery__Built-In"
     lc:is_locked="false"
     lc:is_construction="false"
     fill="none"
     stroke="#000000"
     stroke-width="1"
     id="g13739"
     transform="scale(0.0265403)"
     style="display:inline;stroke-width:19.9382;stroke-dasharray:none">
    <line
       x1="27193.648"
       y1="24728.68"
       x2="27386.445"
       y2="24650.785"
       id="line13676"
       style="stroke-width:19.9382;stroke-dasharray:none" />
    <line
       x1="27386.445"
       y1="24650.785"
       x2="27874.457"
       y2="24453.615"
       id="line13677"
       style="stroke-width:19.9382;stroke-dasharray:none" />
    <line
       x1="27874.457"
       y1="24453.615"
       x2="27995.197"
       y2="24404.832"
       id="line13678"
       style="stroke-width:19.9382;stroke-dasharray:none" />
    <line
       x1="27995.197"
       y1="24404.832"
       x2="28121.34"
       y2="24353.869"
       id="line13679"
       style="stroke-width:19.9382;stroke-dasharray:none" />
    <path
       d="m 28121.339,24353.869 c 106.27,-42.936 245.905,-99.352 407.455,-164.623"
       id="path13679"
       style="stroke-width:19.9382;stroke-dasharray:none" />
    <path
       d="m 28715.537,24651.452 c -161.55,65.271 -301.185,121.687 -407.455,164.623"
       id="path13680"
       style="stroke-width:19.9382;stroke-dasharray:none" />
    <line
       x1="28308.082"
       y1="24816.074"
       x2="28061.201"
       y2="24915.82"
       id="line13680"
       style="stroke-width:19.9382;stroke-dasharray:none" />
    <line
       x1="28061.201"
       y1="24915.82"
       x2="27573.188"
       y2="25112.992"
       id="line13681"
       style="stroke-width:19.9382;stroke-dasharray:none" />
    <line
       x1="27573.188"
       y1="25112.992"
       x2="27380.393"
       y2="25190.885"
       id="line13682"
       style="stroke-width:19.9382;stroke-dasharray:none" />
    <line
       x1="28715.537"
       y1="24651.453"
       x2="28528.795"
       y2="24189.246"
       id="line13683"
       style="stroke-width:19.9382;stroke-dasharray:none" />
    <line
       x1="25294.875"
       y1="27759.715"
       x2="25629.529"
       y2="29657.625"
       id="line13684"
       style="stroke-width:19.9382;stroke-dasharray:none" />
    <line
       x1="25963.635"
       y1="28650.254"
       x2="25776.705"
       y2="27590.121"
       id="line13685"
       style="stroke-width:19.9382;stroke-dasharray:none" />
    <path
       d="m 27027.617,25333.416 a 2050,2050 0 0 0 -1250.912,2256.706"
       id="path13685"
       style="stroke-width:19.9382;stroke-dasharray:none" />
    <line
       x1="27027.617"
       y1="25333.416"
       x2="27380.393"
       y2="25190.885"
       id="line13686"
       style="stroke-width:19.9382;stroke-dasharray:none" />
    <line
       x1="27193.648"
       y1="24728.68"
       x2="26911.908"
       y2="24842.51"
       id="line13687"
       style="stroke-width:19.9382;stroke-dasharray:none" />
    <path
       d="m 26911.909,24842.51 a 2650,2650 0 0 0 -1617.033,2917.205"
       id="path13687"
       style="stroke-width:19.9382;stroke-dasharray:none" />
    <path
       d="m 33111.316,24984.939 a 1300,1300 0 0 0 -497.95,-812.819"
       id="path13688"
       style="stroke-width:19.9382;stroke-dasharray:none" />
    <line
       x1="33111.316"
       y1="24984.939"
       x2="33435.91"
       y2="26828.631"
       id="line13688"
       style="stroke-width:19.9382;stroke-dasharray:none" />
    <path
       d="m 33435.909,26828.63 a 400,400 0 0 0 785.2,13.809"
       id="path13689"
       style="stroke-width:19.9382;stroke-dasharray:none" />
    <line
       x1="34221.109"
       y1="26842.439"
       x2="34552.898"
       y2="25281.502"
       id="line13689"
       style="stroke-width:19.9382;stroke-dasharray:none" />
    <path
       d="M 34552.897,25281.502 A 2100,2100 0 0 0 31686.02,22908.548"
       id="path13690"
       style="stroke-width:19.9382;stroke-dasharray:none" />
    <path
       d="m 31686.02,22908.548 a 300,300 0 0 0 -64.435,516.211"
       id="path13691"
       style="stroke-width:19.9382;stroke-dasharray:none" />
    <line
       x1="31621.584"
       y1="23424.76"
       x2="32613.365"
       y2="24172.119"
       id="line13691"
       style="stroke-width:19.9382;stroke-dasharray:none" />
    <path
       d="m 30295.958,19762.34 a 450,450 0 0 0 -303.454,-718.903"
       id="path13692"
       style="stroke-width:19.9382;stroke-dasharray:none" />
    <line
       x1="29992.504"
       y1="19043.438"
       x2="28720.803"
       y2="18887.291"
       id="line13692"
       style="stroke-width:19.9382;stroke-dasharray:none" />
    <path
       d="m 28044.242,18519.834 a 1050,1050 0 0 0 676.561,367.458"
       id="path13693"
       style="stroke-width:19.9382;stroke-dasharray:none" />
    <line
       x1="28044.242"
       y1="18519.834"
       x2="26815.969"
       y2="17055.254"
       id="line13693"
       style="stroke-width:19.9382;stroke-dasharray:none" />
    <path
       d="m 26815.969,17055.254 a 550,550 0 0 0 -944.499,523.382"
       id="path13694"
       style="stroke-width:19.9382;stroke-dasharray:none" />
    <line
       x1="25871.471"
       y1="17578.637"
       x2="26364.604"
       y2="19096.34"
       id="line13694"
       style="stroke-width:19.9382;stroke-dasharray:none" />
    <path
       d="m 26364.603,19096.341 a 2250,2250 0 0 0 3931.355,665.999"
       id="path13695"
       style="stroke-width:19.9382;stroke-dasharray:none" />
    <path
       d="m 29800.062,13583.664 c -162.133,13.628 -324.265,27.256 -486.398,40.885"
       id="path13696"
       style="stroke-width:19.9382;stroke-dasharray:none" />
    <path
       d="m 29737.241,12836.299 c -162.133,13.629 -324.265,27.258 -486.398,40.885"
       id="path13697"
       style="stroke-width:19.9382;stroke-dasharray:none" />
    <line
       x1="29737.24"
       y1="12836.3"
       x2="30095.977"
       y2="12806.146"
       id="line13697"
       style="stroke-width:19.9382;stroke-dasharray:none" />
    <line
       x1="29250.842"
       y1="12877.185"
       x2="28164.76"
       y2="12968.477"
       id="line13698"
       style="stroke-width:19.9382;stroke-dasharray:none" />
    <path
       d="m 28164.76,12968.477 a 200,200 0 0 0 -146.292,83.468"
       id="path13698"
       style="stroke-width:19.9382;stroke-dasharray:none" />
    <line
       x1="28018.467"
       y1="13051.945"
       x2="27753.102"
       y2="13425.485"
       id="line13699"
       style="stroke-width:19.9382;stroke-dasharray:none" />
    <path
       d="m 27753.101,13425.485 a 200,200 0 0 0 179.797,315.126"
       id="path13699"
       style="stroke-width:19.9382;stroke-dasharray:none" />
    <line
       x1="27932.898"
       y1="13740.611"
       x2="29313.664"
       y2="13624.549"
       id="line13700"
       style="stroke-width:19.9382;stroke-dasharray:none" />
    <path
       d="m 30630.133,12996.387 a 800,800 0 0 0 -534.03,-188.724"
       id="path13700"
       style="stroke-width:19.9382;stroke-dasharray:none" />
    <path
       d="m 30383.386,13769.772 c -159.69,-136.033 -374.358,-204.522 -583.324,-186.108"
       id="path13701"
       style="stroke-width:19.9382;stroke-dasharray:none" />
    <line
       x1="30383.387"
       y1="13769.772"
       x2="31926.18"
       y2="15073.312"
       id="line13701"
       style="stroke-width:19.9382;stroke-dasharray:none" />
    <path
       d="m 31926.18,15073.313 a 200,200 0 0 0 329.033,-157.027"
       id="path13702"
       style="stroke-width:19.9382;stroke-dasharray:none" />
    <line
       x1="32255.213"
       y1="14916.285"
       x2="32245.279"
       y2="14449.687"
       id="line13702"
       style="stroke-width:19.9382;stroke-dasharray:none" />
    <path
       d="m 32245.279,14449.687 a 200,200 0 0 0 -70.876,-148.513"
       id="path13703"
       style="stroke-width:19.9382;stroke-dasharray:none" />
    <line
       x1="32174.402"
       y1="14301.174"
       x2="30630.133"
       y2="12996.387"
       id="line13703"
       style="stroke-width:19.9382;stroke-dasharray:none" />
    <path
       d="m 28618.144,10370.254 a 250,250 0 0 0 120.618,342.763"
       id="path13704"
       style="stroke-width:19.9382;stroke-dasharray:none" />
    <line
       x1="28738.762"
       y1="10713.017"
       x2="29586.051"
       y2="11090.255"
       id="line13704"
       style="stroke-width:19.9382;stroke-dasharray:none" />
    <line
       x1="29586.051"
       y1="11090.255"
       x2="32891.527"
       y2="11090.255"
       id="line13705"
       style="stroke-width:19.9382;stroke-dasharray:none" />
    <line
       x1="35344.93"
       y1="5050.2544"
       x2="36085.559"
       y2="5559.5869"
       id="line13706"
       style="stroke-width:19.9382;stroke-dasharray:none" />
    <path
       d="m 36085.559,5559.5868 a 1100,1100 0 0 0 417.875,174.2867"
       id="path13706"
       style="stroke-width:19.9382;stroke-dasharray:none" />
    <line
       x1="36503.434"
       y1="5733.8735"
       x2="39404.262"
       y2="6285.3247"
       id="line13707"
       style="stroke-width:19.9382;stroke-dasharray:none" />
    <path
       d="m 39810.24,6629.4751 a 540,540 0 0 0 -405.979,-344.1502"
       id="path13707"
       style="stroke-width:19.9382;stroke-dasharray:none" />
    <line
       x1="39810.238"
       y1="6629.4751"
       x2="40487.871"
       y2="8472.4746"
       id="line13708"
       style="stroke-width:19.9382;stroke-dasharray:none" />
    <path
       d="m 37596.219,22890.177 a 80,80 0 0 0 5,-0.08"
       id="path13708"
       style="stroke-width:19.9382;stroke-dasharray:none" />
    <path
       d="m 36604.835,22869.317 a 80,80 0 0 0 3.82,3.225"
       id="path13709"
       style="stroke-width:19.9382;stroke-dasharray:none" />
    <line
       x1="41629.574"
       y1="23290.254"
       x2="41629.574"
       y2="22890.254"
       id="line13709"
       style="stroke-width:19.9382;stroke-dasharray:none" />
    <line
       x1="41629.574"
       y1="22890.254"
       x2="36657.871"
       y2="22890.254"
       id="line13710"
       style="stroke-width:19.9382;stroke-dasharray:none" />
    <path
       d="m 36579.081,22824.126 a 80,80 0 0 0 78.789,66.128"
       id="path13710"
       style="stroke-width:19.9382;stroke-dasharray:none" />
    <line
       x1="36579.082"
       y1="22824.125"
       x2="36285.09"
       y2="21154.258"
       id="line13711"
       style="stroke-width:19.9382;stroke-dasharray:none" />
    <path
       d="m 36285.09,21154.257 a 250,250 0 0 0 -246.213,-206.652"
       id="path13711"
       style="stroke-width:19.9382;stroke-dasharray:none" />
    <line
       x1="36038.879"
       y1="20947.605"
       x2="35842.555"
       y2="20947.605"
       id="line13712"
       style="stroke-width:19.9382;stroke-dasharray:none" />
    <line
       x1="35842.555"
       y1="20947.605"
       x2="36254.996"
       y2="23290.254"
       id="line13713"
       style="stroke-width:19.9382;stroke-dasharray:none" />
    <line
       x1="41481.527"
       y1="23290.254"
       x2="41629.574"
       y2="23290.254"
       id="line13714"
       style="stroke-width:19.9382;stroke-dasharray:none" />
    <line
       x1="35357.453"
       y1="21039.379"
       x2="35357.453"
       y2="21052.379"
       id="line13715"
       style="stroke-width:19.9382;stroke-dasharray:none" />
    <line
       x1="35569.055"
       y1="21039.379"
       x2="35357.453"
       y2="21039.379"
       id="line13716"
       style="stroke-width:19.9382;stroke-dasharray:none" />
    <line
       x1="35357.453"
       y1="22474.586"
       x2="35357.453"
       y2="22490.234"
       id="line13717"
       style="stroke-width:19.9382;stroke-dasharray:none" />
    <line
       x1="35357.453"
       y1="22490.234"
       x2="35398.953"
       y2="22490.234"
       id="line13718"
       style="stroke-width:19.9382;stroke-dasharray:none" />
    <line
       x1="35357.453"
       y1="22474.586"
       x2="35357.453"
       y2="22294.586"
       id="line13719"
       style="stroke-width:19.9382;stroke-dasharray:none" />
    <line
       x1="35357.453"
       y1="22294.586"
       x2="35357.453"
       y2="21197.369"
       id="line13720"
       style="stroke-width:19.9382;stroke-dasharray:none" />
    <line
       x1="35357.453"
       y1="21197.369"
       x2="35357.453"
       y2="21052.379"
       id="line13721"
       style="stroke-width:19.9382;stroke-dasharray:none" />
    <line
       x1="35711.301"
       y1="51414.254"
       x2="35711.301"
       y2="48228.254"
       id="line13722"
       style="stroke-width:19.9382;stroke-dasharray:none" />
    <line
       x1="35707.832"
       y1="45312.254"
       x2="35707.832"
       y2="42148.254"
       id="line13723"
       style="stroke-width:19.9382;stroke-dasharray:none" />
    <line
       x1="35271.43"
       y1="36090.254"
       x2="35271.43"
       y2="39182.254"
       id="line13724"
       style="stroke-width:19.9382;stroke-dasharray:none" />
    <line
       x1="35271.43"
       y1="39182.254"
       x2="35707.832"
       y2="39182.254"
       id="line13725"
       style="stroke-width:19.9382;stroke-dasharray:none" />
    <line
       x1="35707.832"
       y1="39182.254"
       x2="35707.832"
       y2="36090.254"
       id="line13726"
       style="stroke-width:19.9382;stroke-dasharray:none" />
    <line
       x1="35707.832"
       y1="36090.254"
       x2="35271.43"
       y2="36090.254"
       id="line13727"
       style="stroke-width:19.9382;stroke-dasharray:none" />
    <line
       x1="25571.529"
       y1="45001.254"
       x2="25571.529"
       y2="44469.969"
       id="line13728"
       style="stroke-width:19.9382;stroke-dasharray:none" />
    <line
       x1="25055.529"
       y1="44469.969"
       x2="25055.529"
       y2="45001.254"
       id="line13729"
       style="stroke-width:19.9382;stroke-dasharray:none" />
    <line
       x1="26087.529"
       y1="45001.254"
       x2="26087.529"
       y2="44469.969"
       id="line13730"
       style="stroke-width:19.9382;stroke-dasharray:none" />
    <line
       x1="25571.529"
       y1="44469.969"
       x2="25571.529"
       y2="45001.254"
       id="line13731"
       style="stroke-width:19.9382;stroke-dasharray:none" />
    <line
       x1="26603.529"
       y1="45001.254"
       x2="26603.529"
       y2="44469.969"
       id="line13732"
       style="stroke-width:19.9382;stroke-dasharray:none" />
    <line
       x1="26087.529"
       y1="44469.969"
       x2="26087.529"
       y2="45001.254"
       id="line13733"
       style="stroke-width:19.9382;stroke-dasharray:none" />
    <line
       x1="27119.529"
       y1="45001.254"
       x2="27119.529"
       y2="44469.969"
       id="line13734"
       style="stroke-width:19.9382;stroke-dasharray:none" />
    <line
       x1="26603.529"
       y1="44469.969"
       x2="26603.529"
       y2="45001.254"
       id="line13735"
       style="stroke-width:19.9382;stroke-dasharray:none" />
    <line
       x1="27119.529"
       y1="44469.969"
       x2="27119.529"
       y2="45001.254"
       id="line13736"
       style="stroke-width:19.9382;stroke-dasharray:none" />
    <line
       x1="25055.529"
       y1="45001.254"
       x2="25055.529"
       y2="44469.969"
       id="line13737"
       style="stroke-width:19.9382;stroke-dasharray:none" />
    <line
       x1="24539.529"
       y1="44469.969"
       x2="24539.529"
       y2="45001.254"
       id="line13738"
       style="stroke-width:19.9382;stroke-dasharray:none" />
    <line
       x1="24008.529"
       y1="44455.254"
       x2="27641.516"
       y2="44455.254"
       id="line13739"
       style="stroke-width:19.9382;stroke-dasharray:none" />
  </g>
</svg>
