<?xml version="1.0"?>
<svg xmlns="http://www.w3.org/2000/svg" xmlns:lc="https://librecad.org" xmlns:xlink="http://www.w3.org/1999/xlink" width="23600mm" height="54671.92222441mm" viewBox="0 0 23600 54671.92222441">
    <g lc:layername="A-Column__Concrete" lc:is_locked="false" lc:is_construction="false" fill="none" stroke="black" stroke-width="1">
        <line x1="0" y1="11130.5" x2="0" y2="11530.5"/>
        <line x1="0" y1="11530.5" x2="500" y2="11530.5"/>
        <line x1="500" y1="11530.5" x2="500" y2="11130.5"/>
        <line x1="500" y1="11130.5" x2="0" y2="11130.5"/>
        <line x1="0" y1="17210.5" x2="0" y2="17610.5"/>
        <line x1="0" y1="17610.5" x2="500" y2="17610.5"/>
        <line x1="500" y1="17610.5" x2="500" y2="17210.5"/>
        <line x1="500" y1="17210.5" x2="0" y2="17210.5"/>
        <line x1="0" y1="23271.16445524" x2="0" y2="23671.16445524"/>
        <line x1="0" y1="23671.16445524" x2="500" y2="23671.16445524"/>
        <line x1="500" y1="23671.16445524" x2="500" y2="23271.16445524"/>
        <line x1="500" y1="23271.16445524" x2="0" y2="23271.16445524"/>
        <line x1="0" y1="29370.5" x2="0" y2="29770.5"/>
        <line x1="0" y1="29770.5" x2="500" y2="29770.5"/>
        <line x1="500" y1="29770.5" x2="500" y2="29370.5"/>
        <line x1="500" y1="29370.5" x2="0" y2="29370.5"/>
        <line x1="0" y1="35450.5" x2="0" y2="35850.5"/>
        <line x1="0" y1="35850.5" x2="500" y2="35850.5"/>
        <line x1="500" y1="35850.5" x2="500" y2="35450.5"/>
        <line x1="500" y1="35450.5" x2="0" y2="35450.5"/>
        <line x1="0" y1="41530.5" x2="0" y2="41930.5"/>
        <line x1="0" y1="41930.5" x2="500" y2="41930.5"/>
        <line x1="500" y1="41930.5" x2="500" y2="41530.5"/>
        <line x1="500" y1="41530.5" x2="0" y2="41530.5"/>
        <line x1="0" y1="47610.5" x2="0" y2="48010.5"/>
        <line x1="0" y1="48010.5" x2="500" y2="48010.5"/>
        <line x1="500" y1="48010.5" x2="500" y2="47610.5"/>
        <line x1="500" y1="47610.5" x2="0" y2="47610.5"/>
        <line x1="0" y1="53690.5" x2="0" y2="54090.5"/>
        <line x1="0" y1="54090.5" x2="500" y2="54090.5"/>
        <line x1="500" y1="54090.5" x2="500" y2="53690.5"/>
        <line x1="500" y1="53690.5" x2="0" y2="53690.5"/>
        <line x1="0" y1="5050.5" x2="0" y2="5450.5"/>
        <line x1="0" y1="5450.5" x2="500" y2="5450.5"/>
        <line x1="500" y1="5450.5" x2="500" y2="5050.5"/>
        <line x1="500" y1="5050.5" x2="0" y2="5050.5"/>
        <line x1="22860" y1="11130.5" x2="22860" y2="11530.5"/>
        <line x1="22860" y1="11530.5" x2="23360" y2="11530.5"/>
        <line x1="23360" y1="11530.5" x2="23360" y2="11130.5"/>
        <line x1="23360" y1="11130.5" x2="22860" y2="11130.5"/>
        <line x1="22860" y1="17210.5" x2="22860" y2="17610.5"/>
        <line x1="22860" y1="17610.5" x2="23360" y2="17610.5"/>
        <line x1="23360" y1="17610.5" x2="23360" y2="17210.5"/>
        <line x1="23360" y1="17210.5" x2="22860" y2="17210.5"/>
        <line x1="22860" y1="23290.5" x2="22860" y2="23690.5"/>
        <line x1="22860" y1="23690.5" x2="23360" y2="23690.5"/>
        <line x1="23360" y1="23690.5" x2="23360" y2="23290.5"/>
        <line x1="23360" y1="23290.5" x2="22860" y2="23290.5"/>
        <line x1="22860" y1="29370.5" x2="22860" y2="29770.5"/>
        <line x1="22860" y1="29770.5" x2="23360" y2="29770.5"/>
        <line x1="23360" y1="29770.5" x2="23360" y2="29370.5"/>
        <line x1="23360" y1="29370.5" x2="22860" y2="29370.5"/>
        <line x1="23360" y1="35450.5" x2="22860" y2="35450.5"/>
        <line x1="22860" y1="35450.5" x2="22860" y2="35850.5"/>
        <line x1="22860" y1="35850.5" x2="23360" y2="35850.5"/>
        <line x1="23360" y1="35850.5" x2="23360" y2="35450.5"/>
        <line x1="22860" y1="41530.5" x2="22860" y2="41930.5"/>
        <line x1="22860" y1="41930.5" x2="23360" y2="41930.5"/>
        <line x1="23360" y1="41930.5" x2="23360" y2="41530.5"/>
        <line x1="23360" y1="41530.5" x2="22860" y2="41530.5"/>
        <line x1="22860" y1="47610.5" x2="22860" y2="48010.5"/>
        <line x1="22860" y1="48010.5" x2="23360" y2="48010.5"/>
        <line x1="23360" y1="48010.5" x2="23360" y2="47610.5"/>
        <line x1="23360" y1="47610.5" x2="22860" y2="47610.5"/>
        <line x1="22860" y1="53690.5" x2="22860" y2="54090.5"/>
        <line x1="22860" y1="54090.5" x2="23360" y2="54090.5"/>
        <line x1="23360" y1="54090.5" x2="23360" y2="53690.5"/>
        <line x1="23360" y1="53690.5" x2="22860" y2="53690.5"/>
        <line x1="22860" y1="5050.5" x2="22860" y2="5450.5"/>
        <line x1="22860" y1="5450.5" x2="23360" y2="5450.5"/>
        <line x1="23360" y1="5450.5" x2="23360" y2="5050.5"/>
        <line x1="23360" y1="5050.5" x2="22860" y2="5050.5"/>
        <line x1="8530" y1="10930.5" x2="8130" y2="10930.5"/>
        <line x1="8130" y1="10930.5" x2="8130" y2="11730.5"/>
        <line x1="8130" y1="11730.5" x2="8530" y2="11730.5"/>
        <line x1="8530" y1="11730.5" x2="8530" y2="10930.5"/>
        <line x1="8530" y1="4850.5" x2="8130" y2="4850.5"/>
        <line x1="8130" y1="4850.5" x2="8130" y2="5650.5"/>
        <line x1="8130" y1="5650.5" x2="8530" y2="5650.5"/>
        <line x1="8530" y1="5650.5" x2="8530" y2="4850.5"/>
        <line x1="8530" y1="17010.5" x2="8130" y2="17010.5"/>
        <line x1="8130" y1="17010.5" x2="8130" y2="17810.5"/>
        <line x1="8130" y1="17810.5" x2="8530" y2="17810.5"/>
        <line x1="8530" y1="17810.5" x2="8530" y2="17010.5"/>
        <line x1="8530" y1="41330.5" x2="8130" y2="41330.5"/>
        <line x1="8130" y1="41330.5" x2="8130" y2="42130.5"/>
        <line x1="8130" y1="42130.5" x2="8530" y2="42130.5"/>
        <line x1="8530" y1="42130.5" x2="8530" y2="41330.5"/>
        <line x1="8530" y1="47410.5" x2="8130" y2="47410.5"/>
        <line x1="8130" y1="47410.5" x2="8130" y2="48210.5"/>
        <line x1="8130" y1="48210.5" x2="8530" y2="48210.5"/>
        <line x1="8530" y1="48210.5" x2="8530" y2="47410.5"/>
        <line x1="8530" y1="53490.5" x2="8130" y2="53490.5"/>
        <line x1="8130" y1="53490.5" x2="8130" y2="54290.5"/>
        <line x1="8130" y1="54290.5" x2="8530" y2="54290.5"/>
        <line x1="8530" y1="54290.5" x2="8530" y2="53490.5"/>
        <line x1="15230" y1="10930.5" x2="14830" y2="10930.5"/>
        <line x1="14830" y1="10930.5" x2="14830" y2="11730.5"/>
        <line x1="14830" y1="11730.5" x2="15230" y2="11730.5"/>
        <line x1="15230" y1="11730.5" x2="15230" y2="10930.5"/>
        <line x1="15230" y1="4850.5" x2="14830" y2="4850.5"/>
        <line x1="14830" y1="4850.5" x2="14830" y2="5650.5"/>
        <line x1="14830" y1="5650.5" x2="15230" y2="5650.5"/>
        <line x1="15230" y1="5650.5" x2="15230" y2="4850.5"/>
        <line x1="15230" y1="17010.5" x2="14830" y2="17010.5"/>
        <line x1="14830" y1="17010.5" x2="14830" y2="17810.5"/>
        <line x1="14830" y1="17810.5" x2="15230" y2="17810.5"/>
        <line x1="15230" y1="17810.5" x2="15230" y2="17010.5"/>
        <line x1="15230" y1="41330.5" x2="14830" y2="41330.5"/>
        <line x1="14830" y1="41330.5" x2="14830" y2="42130.5"/>
        <line x1="14830" y1="42130.5" x2="15230" y2="42130.5"/>
        <line x1="15230" y1="42130.5" x2="15230" y2="41330.5"/>
        <line x1="15230" y1="47410.5" x2="14830" y2="47410.5"/>
        <line x1="14830" y1="47410.5" x2="14830" y2="48210.5"/>
        <line x1="14830" y1="48210.5" x2="15230" y2="48210.5"/>
        <line x1="15230" y1="48210.5" x2="15230" y2="47410.5"/>
        <line x1="15230" y1="53490.5" x2="14830" y2="53490.5"/>
        <line x1="14830" y1="53490.5" x2="14830" y2="54290.5"/>
        <line x1="14830" y1="54290.5" x2="15230" y2="54290.5"/>
        <line x1="15230" y1="54290.5" x2="15230" y2="53490.5"/>
        <path d="M8330,29210.5 A110,110 0 0,0 8220,29320.5 "/>
        <path d="M8220,29320.5 A110,110 0 0,0 8330,29430.5 "/>
        <path d="M8330,29430.5 A110,110 0 0,0 8330,29210.5 "/>
        <path d="M8330,23130.5 A110,110 0 0,0 8220,23240.5 "/>
        <path d="M8220,23240.5 A110,110 0 0,0 8330,23350.5 "/>
        <path d="M8330,23350.5 A110,110 0 0,0 8330,23130.5 "/>
        <path d="M15030,23130.5 A110,110 0 0,0 14920,23240.5 "/>
        <path d="M14920,23240.5 A110,110 0 0,0 15030,23350.5 "/>
        <path d="M15030,23350.5 A110,110 0 0,0 15030,23130.5 "/>
        <path d="M15030,29210.5 A110,110 0 0,0 14920,29320.5 "/>
        <path d="M14920,29320.5 A110,110 0 0,0 15030,29430.5 "/>
        <path d="M15030,29430.5 A110,110 0 0,0 15030,29210.5 "/>
        <path d="M15030,35290.5 A110,110 0 0,0 14920,35400.5 "/>
        <path d="M14920,35400.5 A110,110 0 0,0 15030,35510.5 "/>
        <path d="M15030,35510.5 A110,110 0 0,0 15030,35290.5 "/>
        <path d="M8330,35290.5 A110,110 0 0,0 8220,35400.5 "/>
        <path d="M8220,35400.5 A110,110 0 0,0 8330,35510.5 "/>
        <path d="M8330,35510.5 A110,110 0 0,0 8330,35290.5 "/>
        <line x1="15230" y1="4850.5" x2="14830" y2="4850.5"/>
        <line x1="14830" y1="4850.5" x2="14830" y2="5650.5"/>
        <line x1="14830" y1="5650.5" x2="15230" y2="5650.5"/>
        <line x1="15230" y1="5650.5" x2="15230" y2="4850.5"/>
        <line x1="8530" y1="4850.5" x2="8130" y2="4850.5"/>
        <line x1="8130" y1="4850.5" x2="8130" y2="5650.5"/>
        <line x1="8130" y1="5650.5" x2="8530" y2="5650.5"/>
        <line x1="8530" y1="5650.5" x2="8530" y2="4850.5"/>
        <line x1="23600" y1="35550.5" x2="23500" y2="35550.5"/>
        <line x1="23500" y1="35550.5" x2="23500" y2="35750.5"/>
        <line x1="23500" y1="35750.5" x2="23600" y2="35750.5"/>
        <line x1="23600" y1="35750.5" x2="23600" y2="35550.5"/>
        <line x1="23600" y1="23390.5" x2="23500" y2="23390.5"/>
        <line x1="23500" y1="23390.5" x2="23500" y2="23590.5"/>
        <line x1="23500" y1="23590.5" x2="23600" y2="23590.5"/>
        <line x1="23600" y1="23590.5" x2="23600" y2="23390.5"/>
        <line x1="23600" y1="11230.5" x2="23500" y2="11230.5"/>
        <line x1="23500" y1="11230.5" x2="23500" y2="11430.5"/>
        <line x1="23500" y1="11430.5" x2="23600" y2="11430.5"/>
        <line x1="23600" y1="11430.5" x2="23600" y2="11230.5"/>
        <line x1="23600" y1="47710.5" x2="23500" y2="47710.5"/>
        <line x1="23500" y1="47710.5" x2="23500" y2="47910.5"/>
        <line x1="23500" y1="47910.5" x2="23600" y2="47910.5"/>
        <line x1="23600" y1="47910.5" x2="23600" y2="47710.5"/>
        <line x1="15702.35052515" y1="7858.62310186" x2="15702.35052515" y2="8922.98717897"/>
        <line x1="15702.35052515" y1="8922.98717897" x2="16176.78438697" y2="8922.98717897"/>
        <line x1="16176.78438697" y1="8922.98717897" x2="16176.78438697" y2="7858.62310186"/>
        <line x1="16176.78438697" y1="7858.62310186" x2="15702.35052515" y2="7858.62310186"/>
        <line x1="15230" y1="4853" x2="15591" y2="4853"/>
        <line x1="15591" y1="4853" x2="15591" y2="4482.97729299"/>
        <line x1="15591" y1="4482.97729299" x2="15230" y2="4482.97729299"/>
        <line x1="15230" y1="4482.97729299" x2="15230" y2="4850.5"/>
        <line x1="19930.7477279" y1="4853" x2="20903.72298721" y2="4853"/>
        <line x1="20903.72298721" y1="4853" x2="20903.72298721" y2="4482.97729299"/>
        <line x1="20903.72298721" y1="4482.97729299" x2="19930.7477279" y2="4482.97729299"/>
        <line x1="19930.7477279" y1="4482.97729299" x2="19930.7477279" y2="4853"/>
        <line x1="22929.5" y1="4853" x2="23290.5" y2="4853"/>
        <line x1="23290.5" y1="4853" x2="23290.5" y2="4482.97729299"/>
        <line x1="23290.5" y1="4482.97729299" x2="22929.5" y2="4482.97729299"/>
        <line x1="22929.5" y1="4482.97729299" x2="22929.5" y2="4853"/>
        <line x1="23290.5" y1="54293" x2="22929.5" y2="54293"/>
        <line x1="22929.5" y1="54293" x2="22929.5" y2="54671.92222441"/>
        <line x1="22929.5" y1="54671.92222441" x2="23290.5" y2="54671.92222441"/>
        <line x1="23290.5" y1="54671.92222441" x2="23290.5" y2="54293"/>
        <line x1="20863.72298721" y1="54293" x2="19890.7477279" y2="54293"/>
        <line x1="19890.7477279" y1="54293" x2="19890.7477279" y2="54671.92222441"/>
        <line x1="19890.7477279" y1="54671.92222441" x2="20863.72298721" y2="54671.92222441"/>
        <line x1="20863.72298721" y1="54671.92222441" x2="20863.72298721" y2="54293"/>
        <line x1="15210.5" y1="54293" x2="14849.5" y2="54293"/>
        <line x1="14849.5" y1="54293" x2="14849.5" y2="54671.92222441"/>
        <line x1="14849.5" y1="54671.92222441" x2="15210.5" y2="54671.92222441"/>
        <line x1="15210.5" y1="54671.92222441" x2="15210.5" y2="54293"/>
        <line x1="22860" y1="0" x2="22860" y2="400"/>
        <line x1="22860" y1="400" x2="23360" y2="400"/>
        <line x1="23360" y1="400" x2="23360" y2="0"/>
        <line x1="23360" y1="0" x2="22860" y2="0"/>
        <line x1="22860" y1="41530.5" x2="22860" y2="41930.5"/>
        <line x1="22860" y1="41930.5" x2="23360" y2="41930.5"/>
        <line x1="23360" y1="41930.5" x2="23360" y2="41530.5"/>
        <line x1="23360" y1="41530.5" x2="22860" y2="41530.5"/>
    </g>
</svg>
